<?xml version="1.0" encoding="utf-8"?>
<!-- Generator: Adobe Illustrator 28.1.0, SVG Export Plug-In . SVG Version: 6.00 Build 0)  -->
<svg version="1.1" id="Layer_1" xmlns="http://www.w3.org/2000/svg" xmlns:xlink="http://www.w3.org/1999/xlink" x="0px" y="0px"
	 viewBox="0 0 395 395" style="enable-background:new 0 0 395 395;" xml:space="preserve">
<style type="text/css">
	.st0{fill:none;}
	.st1{fill:none;stroke:#3A3A3A;stroke-width:23;stroke-miterlimit:10;}
</style>
<rect class="st0" width="371.1" height="371.1"/>
<path class="st1" d="M193.1,188c0,0-7.7,47.4-37.5,70.7c-26.2,20.5-78.5,33-78.5,33l69.4,23.9c0,0-14.7,16.1-36.4,25
	c-25,10.2-42.1,14.8-42.1,14.8s105.1,37.3,193.2-26.8c88.1-64.2,79.8-160.9,79.8-160.9l18.2,14.8c0,0,6.8-48.9-10.2-70.5
	c-17.4-22.1-11-16.9-31.8-51.2c-19.3-31.8-79.6-31.8-79.6-31.8l15.9,19.3c0,0-15.9,8-35.3,1.1c-39-13.8-95.5,19.3-95.5,19.3
	l38.7,14.8c0,0-18.4,11.4-37.8,28.6c-19.8,17.4-59.3,35.7-59.3,35.7l-29.7,17.4l10.7,29.9l4.6,30.6c5.7,22.7,112.6,26.2,112.6,26.2"
	/>
</svg>
