<?xml version="1.0" encoding="utf-8"?>
<!-- Generator: Adobe Illustrator 28.1.0, SVG Export Plug-In . SVG Version: 6.00 Build 0)  -->
<svg version="1.1" id="Layer_1" xmlns="http://www.w3.org/2000/svg" xmlns:xlink="http://www.w3.org/1999/xlink" x="0px" y="0px"
	 viewBox="0 0 395 395" style="enable-background:new 0 0 395 395;" xml:space="preserve">
<style type="text/css">
	.st0{fill:none;}
	.st1{fill:none;stroke:#3A3A3A;stroke-width:23;stroke-miterlimit:10;}
</style>
<rect class="st0" width="395" height="395"/>
<path class="st1" d="M192.8,187.3c0,0-8.2,50.4-39.9,75.3c-27.8,21.8-83.5,35.1-83.5,35.1l73.9,25.4c0,0-15.6,17.2-38.7,26.6
	c-26.6,10.9-44.8,15.7-44.8,15.7s111.9,39.7,205.7-28.6c93.8-68.3,84.9-171.2,84.9-171.2l19.4,15.7c0,0,7.3-52.1-10.9-75.1
	c-18.5-23.5-11.7-18-33.9-54.5C304.2,18.1,240.1,18,240.1,18l17,20.6c0,0-17,8.5-37.5,1.2c-41.6-14.7-101.7,20.6-101.7,20.6
	l41.2,15.7c0,0-19.6,12.2-40.3,30.4c-21.1,18.6-63.2,38-63.2,38l-31.6,18.6l11.4,31.8l4.9,32.5c6.1,24.2,119.9,27.8,119.9,27.8"/>
</svg>
