<?xml version="1.0" encoding="utf-8"?>
<!-- Generator: Adobe Illustrator 26.0.2, SVG Export Plug-In . SVG Version: 6.00 Build 0)  -->
<svg version="1.1" id="Layer_1" xmlns="http://www.w3.org/2000/svg" xmlns:xlink="http://www.w3.org/1999/xlink" x="0px" y="0px"
	 viewBox="0 0 8 8" style="enable-background:new 0 0 8 8;" xml:space="preserve">
<style type="text/css">
	.st0{fill:#F8AD8F;}
	.st1{fill:#BE392D;}
</style>
<g id="Layer_1_00000142879186854066460810000009341280464348834975_" shape-rendering="crispEdges">
	<g id="a">
		<g id="b">
			<g id="c">
				<g id="d">
					<rect id="e" class="st0" width="1" height="1"/>
					<rect id="e-2" x="1" y="1" class="st0" width="1" height="1"/>
					<rect id="f" y="1" class="st1" width="1" height="1"/>
					<rect id="f-2" x="1" class="st1" width="1" height="1"/>
				</g>
				<g id="d-2">
					<rect id="e-3" x="2" class="st0" width="1" height="1"/>
					<rect id="e-4" x="3" y="1" class="st0" width="1" height="1"/>
					<rect id="f-3" x="2" y="1" class="st1" width="1" height="1"/>
					<rect id="f-4" x="3" class="st1" width="1" height="1"/>
				</g>
			</g>
			<g id="c-2">
				<g id="d-3">
					<rect id="e-5" x="4" class="st0" width="1" height="1"/>
					<rect id="e-6" x="5" y="1" class="st0" width="1" height="1"/>
					<rect id="f-5" x="4" y="1" class="st1" width="1" height="1"/>
					<rect id="f-6" x="5" class="st1" width="1" height="1"/>
				</g>
				<g id="d-4">
					<rect id="e-7" x="6" class="st0" width="1" height="1"/>
					<rect id="e-8" x="7" y="1" class="st0" width="1" height="1"/>
					<rect id="f-7" x="6" y="1" class="st1" width="1" height="1"/>
					<rect id="f-8" x="7" class="st1" width="1" height="1"/>
				</g>
			</g>
		</g>
		<g id="b-2">
			<g id="c-3">
				<g id="d-5">
					<rect id="e-9" y="2" class="st0" width="1" height="1"/>
					<rect id="e-10" x="1" y="3" class="st0" width="1" height="1"/>
					<rect id="f-9" y="3" class="st1" width="1" height="1"/>
					<rect id="f-10" x="1" y="2" class="st1" width="1" height="1"/>
				</g>
				<g id="d-6">
					<rect id="e-11" x="2" y="2" class="st0" width="1" height="1"/>
					<rect id="e-12" x="3" y="3" class="st0" width="1" height="1"/>
					<rect id="f-11" x="2" y="3" class="st1" width="1" height="1"/>
					<rect id="f-12" x="3" y="2" class="st1" width="1" height="1"/>
				</g>
			</g>
			<g id="c-4">
				<g id="d-7">
					<rect id="e-13" x="4" y="2" class="st0" width="1" height="1"/>
					<rect id="e-14" x="5" y="3" class="st0" width="1" height="1"/>
					<rect id="f-13" x="4" y="3" class="st1" width="1" height="1"/>
					<rect id="f-14" x="5" y="2" class="st1" width="1" height="1"/>
				</g>
				<g id="d-8">
					<rect id="e-15" x="6" y="2" class="st0" width="1" height="1"/>
					<rect id="e-16" x="7" y="3" class="st0" width="1" height="1"/>
					<rect id="f-15" x="6" y="3" class="st1" width="1" height="1"/>
					<rect id="f-16" x="7" y="2" class="st1" width="1" height="1"/>
				</g>
			</g>
		</g>
	</g>
	<g id="a-2">
		<g id="b-3">
			<g id="c-5">
				<g id="d-9">
					<rect id="e-17" y="4" class="st0" width="1" height="1"/>
					<rect id="e-18" x="1" y="5" class="st0" width="1" height="1"/>
					<rect id="f-17" y="5" class="st1" width="1" height="1"/>
					<rect id="f-18" x="1" y="4" class="st1" width="1" height="1"/>
				</g>
				<g id="d-10">
					<rect id="e-19" x="2" y="4" class="st0" width="1" height="1"/>
					<rect id="e-20" x="3" y="5" class="st0" width="1" height="1"/>
					<rect id="f-19" x="2" y="5" class="st1" width="1" height="1"/>
					<rect id="f-20" x="3" y="4" class="st1" width="1" height="1"/>
				</g>
			</g>
			<g id="c-6">
				<g id="d-11">
					<rect id="e-21" x="4" y="4" class="st0" width="1" height="1"/>
					<rect id="e-22" x="5" y="5" class="st0" width="1" height="1"/>
					<rect id="f-21" x="4" y="5" class="st1" width="1" height="1"/>
					<rect id="f-22" x="5" y="4" class="st1" width="1" height="1"/>
				</g>
				<g id="d-12">
					<rect id="e-23" x="6" y="4" class="st0" width="1" height="1"/>
					<rect id="e-24" x="7" y="5" class="st0" width="1" height="1"/>
					<rect id="f-23" x="6" y="5" class="st1" width="1" height="1"/>
					<rect id="f-24" x="7" y="4" class="st1" width="1" height="1"/>
				</g>
			</g>
		</g>
		<g id="b-4">
			<g id="c-7">
				<g id="d-13">
					<rect id="e-25" y="6" class="st0" width="1" height="1"/>
					<rect id="e-26" x="1" y="7" class="st0" width="1" height="1"/>
					<rect id="f-25" y="7" class="st1" width="1" height="1"/>
					<rect id="f-26" x="1" y="6" class="st1" width="1" height="1"/>
				</g>
				<g id="d-14">
					<rect id="e-27" x="2" y="6" class="st0" width="1" height="1"/>
					<rect id="e-28" x="3" y="7" class="st0" width="1" height="1"/>
					<rect id="f-27" x="2" y="7" class="st1" width="1" height="1"/>
					<rect id="f-28" x="3" y="6" class="st1" width="1" height="1"/>
				</g>
			</g>
			<g id="c-8">
				<g id="d-15">
					<rect id="e-29" x="4" y="6" class="st0" width="1" height="1"/>
					<rect id="e-30" x="5" y="7" class="st0" width="1" height="1"/>
					<rect id="f-29" x="4" y="7" class="st1" width="1" height="1"/>
					<rect id="f-30" x="5" y="6" class="st1" width="1" height="1"/>
				</g>
				<g id="d-16">
					<rect id="e-31" x="6" y="6" class="st0" width="1" height="1"/>
					<rect id="e-32" x="7" y="7" class="st0" width="1" height="1"/>
					<rect id="f-31" x="6" y="7" class="st1" width="1" height="1"/>
					<rect id="f-32" x="7" y="6" class="st1" width="1" height="1"/>
				</g>
			</g>
		</g>
	</g>
</g>
</svg>
