<?xml version="1.0" encoding="utf-8"?>
<!-- Generator: Adobe Illustrator 26.0.2, SVG Export Plug-In . SVG Version: 6.00 Build 0)  -->
<svg version="1.1" id="Layer_1" xmlns="http://www.w3.org/2000/svg" xmlns:xlink="http://www.w3.org/1999/xlink" x="0px" y="0px"
	 viewBox="0 0 395 395" style="enable-background:new 0 0 395 395;" xml:space="preserve">
<style type="text/css">
	.st0{fill:none;}
	.st1{fill:#7F7F7F;}
</style>
<rect class="st0" width="395" height="395"/>
<path class="st1" d="M198.7,58.2c64-0.2,63.3,62.6,63.3,62.6s-15.3,14-64.5,14c-44.6,0-62.9-14-62.9-14S135.8,58.5,198.7,58.2
	L198.7,58.2z"/>
<path class="st1" d="M134.6,134.9c0,0,17.1,14.9,62.9,14.9c50.3,0,64-14.9,64-14.9s0,44.2-62.9,45
	C134.6,180.6,134.6,134.9,134.6,134.9L134.6,134.9z"/>
<path class="st1" d="M155.2,184c0,0,13.7,8,42.3,8s44.6-8,44.6-8l-11.4,117.8c0,0-4.6,14.9-30.9,14.9c-28.6,0-32-13.7-32-13.7
	L155.2,184L155.2,184z"/>
<path class="st1" d="M110.6,348.7c0-10.3,29.1-41.2,41-41.2c9.1,0,9.2,1.9,13,4.3c8,5,15,12,34,12s27-6,37-14
	c3.7-3,5.7-3.1,14.1-2.9c12.9,0.2,45,31.5,43.9,46.4c-1.3,16.4-32.2,12-94.9,11.4C139.6,364.2,110.6,365.1,110.6,348.7L110.6,348.7z
	"/>
</svg>
