<?xml version="1.0" encoding="utf-8"?>
<!-- Generator: Adobe Illustrator 28.1.0, SVG Export Plug-In . SVG Version: 6.00 Build 0)  -->
<svg version="1.1" id="Layer_1" xmlns="http://www.w3.org/2000/svg" xmlns:xlink="http://www.w3.org/1999/xlink" x="0px" y="0px"
	 viewBox="0 0 395 395" style="enable-background:new 0 0 395 395;" xml:space="preserve">
<style type="text/css">
	.st0{fill:none;}
	.st1{fill:none;stroke:#231F20;stroke-width:23;stroke-miterlimit:10;}
</style>
<rect class="st0" width="395" height="395"/>
<path class="st1" d="M149.9,148.8c0,0,16.3,11.2,50.3,11.2s53-11.2,53-11.2l-13.6,165c0,0-5.4,20.8-36.7,20.8
	c-34,0-38.1-19.2-38.1-19.2L149.9,148.8L149.9,148.8z"/>
<path class="st1" d="M96.1,361.8c0-12.2,34-49,48.2-49c10.9,0,10.9,2.3,15.4,5.1c9.5,5.9,17.8,14.3,40.4,14.3s32.1-7.1,44-16.6
	c4.4-3.5,6.8-3.6,16.7-3.5c15.4,0.2,53.5,37.5,52.2,55.1c-1.5,19.5-38.3,14.3-112.8,13.6C130,380.1,96.1,387.7,96.1,361.8
	L96.1,361.8z"/>
<ellipse class="st1" cx="203.9" cy="87.4" rx="81.9" ry="74.3"/>
<path class="st1" d="M130.2,93.5c0,0,31.4,12.3,70.9,12.3c51.8,0,79.8-12.3,79.8-12.3"/>
</svg>
