<?xml version="1.0" encoding="UTF-8"?><svg id="Layer_1" xmlns="http://www.w3.org/2000/svg" viewBox="0 0 395 395"><rect width="395" height="395" fill="none"/><path d="M198.66,58.25c64.04-.25,63.34,62.64,63.34,62.64,0,0-15.31,13.98-64.48,13.98-44.6,0-62.89-13.98-62.89-13.98,0,0,1.14-62.39,64.04-62.64Z"/><path d="M134.63,134.87s17.15,14.87,62.89,14.87c50.33,0,64.04-14.87,64.04-14.87,0,0,0,44.23-62.88,44.98-64.05,.76-64.05-44.98-64.05-44.98Z"/><path d="M155.21,184.04s13.72,8,42.31,8,44.6-8,44.6-8l-11.44,117.78s-4.57,14.87-30.88,14.87c-28.59,0-32.02-13.72-32.02-13.72l-12.58-118.93Z"/><path d="M110.61,348.7c0-10.29,29.12-41.17,41-41.17,9.15,0,9.16,1.89,13,4.3,8,5,15,12,34,12s27-6,37-14c3.71-2.97,5.7-3.07,14.07-2.93,12.93,.21,45.04,31.51,43.9,46.38-1.26,16.4-32.25,12-94.91,11.44-59.02-.53-88.05,.42-88.05-16.01Z"/></svg>