<?xml version="1.0" encoding="utf-8"?>
<!-- Generator: Adobe Illustrator 28.1.0, SVG Export Plug-In . SVG Version: 6.00 Build 0)  -->
<svg version="1.1" id="Layer_1" xmlns="http://www.w3.org/2000/svg" xmlns:xlink="http://www.w3.org/1999/xlink" x="0px" y="0px"
	 viewBox="0 0 395 395" style="enable-background:new 0 0 395 395;" xml:space="preserve">
<style type="text/css">
	.st0{fill:none;}
	.st1{fill:none;stroke:#FFFFFF;stroke-width:23;stroke-miterlimit:10;}
</style>
<rect class="st0" width="395" height="395"/>
<path class="st1" d="M151.5,149.8c0,0,16,11,49.2,11s51.8-11,51.8-11l-13.3,161.3c0,0-5.3,20.4-35.9,20.4
	c-33.2,0-37.2-18.8-37.2-18.8L151.5,149.8L151.5,149.8z"/>
<path class="st1" d="M98.9,358.1c0-12,33.3-47.9,47.1-47.9c10.6,0,10.6,2.2,15.1,5c9.3,5.8,17.4,13.9,39.5,13.9s31.4-7,43-16.3
	c4.3-3.5,6.6-3.6,16.3-3.4c15,0.2,52.3,36.6,51,53.9c-1.5,19.1-37.5,13.9-110.3,13.3C132,376.1,98.9,383.5,98.9,358.1L98.9,358.1z"
	/>
<ellipse class="st1" cx="204.3" cy="89.9" rx="80" ry="72.6"/>
<path class="st1" d="M132.2,95.9c0,0,30.6,12,69.3,12c50.6,0,78-12,78-12"/>
</svg>
