<?xml version="1.0" encoding="utf-8"?>
<!-- Generator: Adobe Illustrator 26.0.2, SVG Export Plug-In . SVG Version: 6.00 Build 0)  -->
<svg version="1.1" id="Layer_1" xmlns="http://www.w3.org/2000/svg" xmlns:xlink="http://www.w3.org/1999/xlink" x="0px" y="0px"
	 viewBox="0 0 395 395" style="enable-background:new 0 0 395 395;" xml:space="preserve">
<style type="text/css">
	.st0{fill:#FFFFFF;stroke:#000000;stroke-width:23;stroke-miterlimit:10;}
	.st1{stroke:#000000;stroke-width:23;stroke-miterlimit:10;}
	.st2{fill:#FFFFFF;}
</style>
<polyline class="st0" points="235.1,138.5 362.6,103.3 319.2,220.3 "/>
<polyline class="st0" points="159.9,138.2 32.4,102.9 75.8,219.9 "/>
<path class="st1" d="M320.1,211.7c0,68.5-76,145-124,145c-50,0-124-76.5-124-145s55.5-124,124-124S320.1,143.3,320.1,211.7z"/>
<circle class="st2" cx="146" cy="211.4" r="35.1"/>
<circle class="st2" cx="244.8" cy="211.6" r="35.1"/>
<ellipse class="st1" cx="244.4" cy="220.6" rx="22" ry="23"/>
<polygon class="st2" points="172.1,281.2 218.6,281.2 194.1,307.2 "/>
<ellipse class="st1" cx="145.9" cy="220.6" rx="22" ry="23"/>
<polygon class="st0" points="111.1,131.8 96.1,58.8 158.1,83.8 193.1,38.8 232.1,84.8 294.1,57.8 283.1,131.8 "/>
</svg>
