<?xml version="1.0" encoding="utf-8"?>
<!-- Generator: Adobe Illustrator 26.0.2, SVG Export Plug-In . SVG Version: 6.00 Build 0)  -->
<svg version="1.1" id="Layer_1" xmlns="http://www.w3.org/2000/svg" xmlns:xlink="http://www.w3.org/1999/xlink" x="0px" y="0px"
	 viewBox="0 0 395 395" style="enable-background:new 0 0 395 395;" xml:space="preserve">
<style type="text/css">
	.st0{fill:#FFFFFF;stroke:#000000;stroke-width:23;stroke-miterlimit:10;}
	.st1{fill:#FFFFFF;stroke:#FFFFFF;stroke-width:23;stroke-miterlimit:10;}
</style>
<polyline class="st0" points="232.2,159.4 288.5,122.8 288.5,239 "/>
<polyline class="st0" points="160.1,161.7 103.7,125.2 103.7,241.3 "/>
<path class="st0" d="M288.5,244.7c0,51.2-56.9,108.5-92.8,108.5c-37.4,0-92.8-57.2-92.8-108.5s41.5-92.8,92.8-92.8
	S288.5,193.5,288.5,244.7z"/>
<polygon points="177.8,296.7 212.6,296.7 194.2,316.1 "/>
<circle cx="158.6" cy="251.8" r="26.3"/>
<circle cx="232.5" cy="251.9" r="26.3"/>
<ellipse class="st1" cx="232.2" cy="258.7" rx="16.4" ry="17.2"/>
<ellipse class="st1" cx="158.5" cy="258.7" rx="16.4" ry="17.2"/>
<polygon class="st0" points="151.6,163.3 124.6,95.3 173.6,117.3 196.6,49.3 218.6,117.3 267.6,88.3 239.6,163.3 195.2,163.3 "/>
</svg>
