<?xml version="1.0" encoding="UTF-8"?><svg id="Layer_1" xmlns="http://www.w3.org/2000/svg" viewBox="0 0 395 395"><defs><style>.cls-1,.cls-2{stroke:#fff;}.cls-1,.cls-2,.cls-3{stroke-miterlimit:10;stroke-width:23px;}.cls-1,.cls-4{fill:none;}.cls-3{stroke:#000;}</style></defs><rect class="cls-4" width="395" height="395"/><path class="cls-3" d="M195.97,188.85s-6.79,41.66-32.97,62.15c-23,18-69,29-69,29l61,21s-12.92,14.19-32,22c-22,9-37,13-37,13,0,0,92.38,32.81,169.86-23.58,77.48-56.4,70.14-141.42,70.14-141.42l16,13s6-43-9-62c-15.3-19.39-9.66-14.9-28-45-17.01-27.92-70-28-70-28l14,17s-14,7-31,1c-34.33-12.11-84,17-84,17l34,13s-16.17,10.04-33.26,25.11c-17.39,15.33-52.16,31.4-52.16,31.4l-26.08,15.33,9.42,26.28,4.08,26.88c5,20,99,23,99,23"/><path class="cls-1" d="M231.2,113.59s21.76-31.88,45.62-17.76c23.86,14.12,0,45.1,0,45.1"/><path class="cls-1" d="M185.5,136.5s2.51-2.32,3.35-2.55-2.37,2.32-3.35,2.55Z"/><path class="cls-2" d="M169,245s13.89-17.05,19-28c7-15,8-28,8-28"/></svg>