<?xml version="1.0" encoding="utf-8"?>
<!-- Generator: Adobe Illustrator 26.0.2, SVG Export Plug-In . SVG Version: 6.00 Build 0)  -->
<svg version="1.1" id="Layer_1" xmlns="http://www.w3.org/2000/svg" xmlns:xlink="http://www.w3.org/1999/xlink" x="0px" y="0px"
	 viewBox="0 0 395 395" style="enable-background:new 0 0 395 395;" xml:space="preserve">
<style type="text/css">
	.st0{fill:#FFFFFF;stroke:#000000;stroke-width:23;stroke-miterlimit:10;}
	.st1{stroke:#000000;stroke-width:23;stroke-miterlimit:10;}
	.st2{fill:#FFFFFF;}
</style>
<polyline class="st0" points="236.5,158.8 292.8,122.3 292.8,238.5 "/>
<polyline class="st0" points="164.3,161.2 108,124.6 108,240.8 "/>
<path class="st1" d="M292.8,244.2c0,51.2-56.9,108.5-92.8,108.5c-37.4,0-92.8-57.2-92.8-108.5s41.5-92.8,92.8-92.8
	S292.8,192.9,292.8,244.2z"/>
<circle class="st2" cx="162.5" cy="243.9" r="26.3"/>
<circle class="st2" cx="236.5" cy="244" r="26.3"/>
<ellipse class="st1" cx="236.2" cy="250.8" rx="16.4" ry="17.2"/>
<polygon class="st2" points="182.1,296.1 216.8,296.1 198.5,315.6 "/>
<ellipse class="st1" cx="162.4" cy="250.8" rx="16.4" ry="17.2"/>
<polygon class="st0" points="155,166.3 128,98.3 177,120.3 200,52.3 222,120.3 271,91.3 243,166.3 198.6,166.3 "/>
</svg>
