<?xml version="1.0" encoding="utf-8"?>
<!-- Generator: Adobe Illustrator 26.0.2, SVG Export Plug-In . SVG Version: 6.00 Build 0)  -->
<svg version="1.1" id="Layer_1" xmlns="http://www.w3.org/2000/svg" xmlns:xlink="http://www.w3.org/1999/xlink" x="0px" y="0px"
	 viewBox="0 0 395 395" style="enable-background:new 0 0 395 395;" xml:space="preserve">
<style type="text/css">
	.st0{fill:none;}
	.st1{fill:#FFFF00;stroke:#000000;stroke-width:23;stroke-miterlimit:10;}
	.st2{fill:none;stroke:#000000;stroke-width:23;stroke-miterlimit:10;}
</style>
<rect class="st0" width="395" height="395"/>
<path class="st1" d="M196,188.9c0,0-6.8,41.7-33,62.1c-23,18-69,29-69,29l61,21c0,0-12.9,14.2-32,22c-22,9-37,13-37,13
	s92.4,32.8,169.9-23.6C333.3,256,326,171,326,171l16,13c0,0,6-43-9-62c-15.3-19.4-9.7-14.9-28-45c-17-27.9-70-28-70-28l14,17
	c0,0-14,7-31,1c-34.3-12.1-84,17-84,17l34,13c0,0-16.2,10-33.3,25.1c-17.4,15.3-52.2,31.4-52.2,31.4l-26.1,15.3l9.4,26.3L70,222
	c5,20,99,23,99,23"/>
<path class="st2" d="M231.2,113.6c0,0,21.8-31.9,45.6-17.8c23.9,14.1,0,45.1,0,45.1"/>
<path class="st2" d="M185.5,136.5c0,0,2.5-2.3,3.4-2.6S186.5,136.3,185.5,136.5z"/>
</svg>
