<?xml version="1.0" encoding="utf-8"?>
<!-- Generator: Adobe Illustrator 28.1.0, SVG Export Plug-In . SVG Version: 6.00 Build 0)  -->
<svg version="1.1" id="Layer_1" xmlns="http://www.w3.org/2000/svg" xmlns:xlink="http://www.w3.org/1999/xlink" x="0px" y="0px"
	 viewBox="0 0 395 395" style="enable-background:new 0 0 395 395;" xml:space="preserve">
<style type="text/css">
	.st0{fill:none;}
	.st1{fill:none;stroke:#FFFFFF;stroke-width:23;stroke-miterlimit:10;}
</style>
<rect class="st0" width="395" height="395"/>
<path class="st1" d="M197.5,187.3c0,0-8.4,51.5-40.8,76.9C128.3,286.4,71.4,300,71.4,300l75.4,26c0,0-16,17.5-39.6,27.2
	c-27.2,11.1-45.8,16.1-45.8,16.1s114.2,40.6,210.1-29.2c95.8-69.7,86.7-174.9,86.7-174.9l19.8,16.1c0,0,7.4-53.2-11.1-76.7
	C348,80.6,355,86.2,332.3,49c-21-34.5-86.6-34.6-86.6-34.6l17.3,21c0,0-17.3,8.7-38.3,1.2c-42.5-15-103.9,21-103.9,21l42,16.1
	c0,0-20,12.4-41.1,31.1c-21.5,19-64.5,38.8-64.5,38.8l-32.3,19L36.6,195l5,33.2c6.2,24.7,122.4,28.4,122.4,28.4"/>
<path class="st1" d="M241,94.2c0,0,26.9-39.4,56.4-22c29.5,17.5,0,55.8,0,55.8"/>
<path class="st1" d="M184.5,122.6c0,0,3.1-2.9,4.1-3.2C189.7,119.1,185.7,122.3,184.5,122.6z"/>
</svg>
