<?xml version="1.0" encoding="UTF-8"?><svg id="Layer_1" xmlns="http://www.w3.org/2000/svg" viewBox="0 0 395 395"><rect width="395" height="395" fill="none"/><polygon points="58.85 361.5 354.27 298.19 343 257 50 314 58.85 361.5" fill="#fff" stroke="#000" stroke-miterlimit="10" stroke-width="23"/><polygon points="51.27 293.12 344.4 366.36 352.41 324.41 64.25 246.58 51.27 293.12" fill="#fff" stroke="#000" stroke-miterlimit="10" stroke-width="23"/><path d="M213.57,328c-92.45,6.78-115.81-64.85-116.93-91.5-2.93-69.26,40.82-112.6,40.82-112.6,0,0,2.52,13.33,15.33,27.21,14.81,16.05,25.92,29.67,25.92,29.67,0,0,10.07-30.7,12.5-60.94,1.97-24.55,20-43.34,20-43.34,0,0,22.5,33.86,82.45,106.63,36.51,44.32,20.4,137.5-80.08,144.87Z" stroke="#000" stroke-miterlimit="10" stroke-width="23"/><path d="M149.66,87.95c-7.03-7.63-4.73-21.05,5.75-30.7,10.83-9.97,13.96-19.79,13.96-19.79,0,0,21.27,19.18,9.53,37.76-11.29,17.88-28.53,14.93-29.24,12.74Z" stroke="#000" stroke-miterlimit="10" stroke-width="23"/><path d="M215.02,321.55c-44.06,6.58-57.91-27.49-58.45-39-1.41-29.89,19.62-48.6,19.62-48.6,0,0,1.21,5.76,7.37,11.74,7.12,6.93,12.46,12.81,12.46,12.81,0,0,4.84-13.25,6.01-26.3,.95-10.6,9.61-18.71,9.61-18.71,0,0,10.81,14.61,39.63,46.02,17.55,19.13,7.8,55.45-36.24,62.03Z" fill="#fff"/></svg>