<?xml version="1.0" encoding="utf-8"?>
<!-- Generator: Adobe Illustrator 26.0.2, SVG Export Plug-In . SVG Version: 6.00 Build 0)  -->
<svg version="1.1" id="Layer_1" xmlns="http://www.w3.org/2000/svg" xmlns:xlink="http://www.w3.org/1999/xlink" x="0px" y="0px"
	 viewBox="0 0 395 395" style="enable-background:new 0 0 395 395;" xml:space="preserve">
<style type="text/css">
	.st0{fill:none;}
	.st1{fill:#FFFF00;stroke:#000000;stroke-width:23;stroke-miterlimit:10;}
</style>
<rect class="st0" width="395" height="395"/>
<polygon class="st1" points="58.8,361.5 354.3,298.2 343,257 50,314 "/>
<polygon class="st1" points="51.3,293.1 344.4,366.4 352.4,324.4 64.2,246.6 "/>
<path class="st1" d="M213.6,328c-92.4,6.8-115.8-64.9-116.9-91.5c-2.9-69.3,40.8-112.6,40.8-112.6s2.5,13.3,15.3,27.2
	c14.8,16.1,25.9,29.7,25.9,29.7s10.1-30.7,12.5-60.9c2-24.6,20-43.3,20-43.3s22.5,33.9,82.4,106.6
	C330.2,227.5,314.1,320.6,213.6,328L213.6,328z"/>
<path class="st1" d="M149.7,87.9c-7-7.6-4.7-21.1,5.8-30.7c10.8-10,14-19.8,14-19.8s21.3,19.2,9.5,37.8
	C167.6,93.1,150.4,90.1,149.7,87.9L149.7,87.9z"/>
<path d="M215,321.5c-44.1,6.6-57.9-27.5-58.4-39c-1.4-29.9,19.6-48.6,19.6-48.6s1.2,5.8,7.4,11.7c7.1,6.9,12.5,12.8,12.5,12.8
	s4.8-13.2,6-26.3c0.9-10.6,9.6-18.7,9.6-18.7s10.8,14.6,39.6,46C268.8,278.6,259.1,315,215,321.5L215,321.5z"/>
</svg>
