<?xml version="1.0" encoding="utf-8"?>
<!-- Generator: Adobe Illustrator 26.0.2, SVG Export Plug-In . SVG Version: 6.00 Build 0)  -->
<svg version="1.1" id="Layer_1" xmlns="http://www.w3.org/2000/svg" xmlns:xlink="http://www.w3.org/1999/xlink" x="0px" y="0px"
	 viewBox="0 0 395 395" style="enable-background:new 0 0 395 395;" xml:space="preserve">
<style type="text/css">
	.st0{fill:#FFFFFF;stroke:#000000;stroke-width:23;stroke-miterlimit:10;}
	.st1{fill:#FFFFFF;stroke:#FFFFFF;stroke-width:23;stroke-miterlimit:10;}
</style>
<polyline class="st0" points="235.1,139.5 362.6,104.3 319.2,221.3 "/>
<polyline class="st0" points="159.9,139.2 32.4,104 75.8,221 "/>
<path class="st0" d="M319.3,210.2c0,68.5-76,145-124,145c-50,0-124-76.5-124-145s55.5-124,124-124S319.3,141.7,319.3,210.2z"/>
<polygon points="171.3,279.7 217.8,279.7 193.2,305.7 "/>
<circle cx="145.6" cy="219.7" r="35.1"/>
<circle cx="244.4" cy="219.9" r="35.1"/>
<ellipse class="st1" cx="244" cy="229" rx="22" ry="23"/>
<ellipse class="st1" cx="145.4" cy="228.9" rx="22" ry="23"/>
<polygon class="st0" points="111.1,132.8 96.1,59.8 158.1,84.8 193.1,39.8 232.1,85.8 294.1,58.8 283.1,132.8 "/>
</svg>
