<?xml version="1.0" encoding="utf-8"?>
<!-- Generator: Adobe Illustrator 26.0.2, SVG Export Plug-In . SVG Version: 6.00 Build 0)  -->
<svg version="1.1" id="Layer_1" xmlns="http://www.w3.org/2000/svg" xmlns:xlink="http://www.w3.org/1999/xlink" x="0px" y="0px"
	 viewBox="0 0 395 395" style="enable-background:new 0 0 395 395;" xml:space="preserve">
<style type="text/css">
	.st0{fill:none;}
	.st1{fill:#0000FF;stroke:#000000;stroke-width:23;stroke-miterlimit:10;}
	.st2{fill:none;stroke:#000000;stroke-width:23;stroke-miterlimit:10;}
</style>
<rect class="st0" width="395" height="395"/>
<path class="st1" d="M158.6,176.3c0,0,12.6,8.7,38.9,8.7s41-8.7,41-8.7l-10.5,127.5c0,0-4.2,16.1-28.4,16.1
	c-26.3,0-29.4-14.9-29.4-14.9L158.6,176.3L158.6,176.3z"/>
<path class="st1" d="M117,341c0-9.5,26.3-37.9,37.2-37.9c8.4,0,8.4,1.7,11.9,4c7.4,4.6,13.8,11,31.2,11s24.8-5.5,34-12.9
	c3.4-2.7,5.2-2.8,12.9-2.7c11.9,0.2,41.4,29,40.3,42.6c-1.2,15.1-29.6,11-87.2,10.5C143.2,355.2,117,361,117,341L117,341z"/>
<ellipse class="st1" cx="200.3" cy="128.9" rx="63.3" ry="57.4"/>
<path class="st2" d="M143.4,133.7c0,0,24.2,9.5,54.8,9.5c40,0,61.6-9.5,61.6-9.5"/>
</svg>
