<?xml version="1.0" encoding="UTF-8"?><svg id="Layer_1" xmlns="http://www.w3.org/2000/svg" viewBox="0 0 395 395"><rect width="395" height="395" fill="none"/><path d="M158.58,176.33s12.61,8.67,38.87,8.67,40.97-8.67,40.97-8.67l-10.51,127.5s-4.2,16.09-28.36,16.09c-26.26,0-29.42-14.85-29.42-14.85l-11.56-128.74Z" fill="#fff" stroke="#000" stroke-miterlimit="10" stroke-width="23"/><path d="M117,341c0-9.45,26.31-37.9,37.22-37.9,8.4,0,8.41,1.74,11.94,3.95,7.35,4.59,13.78,11.02,31.24,11.02s24.8-5.51,33.99-12.86c3.41-2.73,5.23-2.82,12.92-2.69,11.88,.19,41.38,28.95,40.33,42.61-1.16,15.07-29.62,11.02-87.2,10.51-54.23-.48-80.45,5.38-80.45-14.62Z" fill="#fff" stroke="#000" stroke-miterlimit="10" stroke-width="23"/><ellipse cx="200.32" cy="128.92" rx="63.28" ry="57.42" fill="#fff" stroke="#000" stroke-miterlimit="10" stroke-width="23"/><path d="M143.36,133.66s24.23,9.48,54.79,9.48c40.04,0,61.64-9.48,61.64-9.48" fill="none" stroke="#000" stroke-miterlimit="10" stroke-width="23"/></svg>